<?xml version="1.0" standalone="no"?>
<!DOCTYPE svg PUBLIC "-//W3C//DTD SVG 20010904//EN"
 "http://www.w3.org/TR/2001/REC-SVG-20010904/DTD/svg10.dtd">
<svg version="1.0" xmlns="http://www.w3.org/2000/svg"
 width="50.000000pt" height="50.000000pt" viewBox="0 0 50.000000 50.000000"
 preserveAspectRatio="xMidYMid meet">

<g transform="translate(0.000000,50.000000) scale(0.100000,-0.100000)"
fill="#000000" stroke="none">
<path d="M314 378 c1 -7 14 -14 29 -16 l26 -3 4 -122 3 -122 2 122 c2 117 3
122 25 126 12 2 -1 5 -30 6 -28 0 -54 6 -56 11 -3 6 -4 5 -3 -2z"/>
<path d="M12 245 l2 -130 3 115 c3 78 7 110 13 100 5 -8 10 -10 10 -4 0 5 -7
19 -15 30 -13 17 -14 5 -13 -111z"/>
<path d="M120 245 l0 -125 48 2 47 1 -42 4 -43 4 0 55 c0 49 2 54 23 54 12 0
29 5 37 10 11 7 5 10 -22 10 l-38 0 0 49 0 50 43 4 42 4 -47 1 -48 2 0 -125z"/>
<path d="M221 368 c-1 -3 9 -31 20 -62 l22 -56 -22 -56 c-12 -32 -20 -59 -18
-61 2 -2 13 20 24 48 l19 52 24 -57 c12 -31 24 -55 26 -53 2 2 -7 31 -20 65
l-24 61 19 52 c11 28 18 53 15 56 -2 2 -9 -13 -16 -34 -14 -43 -30 -65 -30
-42 -1 15 -38 99 -39 87z"/>
<path d="M62 238 c3 -7 13 -37 23 -66 9 -29 19 -52 21 -49 5 5 -36 127 -43
127 -3 0 -3 -6 -1 -12z"/>
<path d="M460 169 c-7 -11 -9 -23 -6 -27 3 -3 6 0 6 7 0 7 5 9 11 6 6 -4 8
-13 5 -21 -3 -8 -1 -14 4 -14 13 0 13 27 -1 35 -6 4 -8 13 -5 21 8 21 -2 17
-14 -7z"/>
<path d="M428 123 c7 -3 16 -2 19 1 4 3 -2 6 -13 5 -11 0 -14 -3 -6 -6z"/>
</g>
</svg>
